<svg width="476px" height="531px"
 viewBox="0.00 0.00 342.75 382.00" xmlns="http://www.w3.org/2000/svg" xmlns:xlink="http://www.w3.org/1999/xlink">
<g id="graph0" class="graph" transform="scale(0.9999928000575995 0.9999928000575995) rotate(0.0) translate(4.0 378.0)">
<polygon fill="white" stroke="none" points="-4,4 -4,-378 338.75,-378 338.75,4 -4,4"/>
<text text-anchor="middle" x="167.38" y="-336.75" font-family="Times,serif" font-size="35.00">AVN Launcher V3</text>
<!-- :androidApp -->
<g id="node1" class="node">
<title>:androidApp</title>
<polygon fill="#ab47bc" stroke="black" points="184.35,-324 81.35,-324 81.35,-288 184.35,-288 184.35,-324"/>
<text text-anchor="middle" x="132.85" y="-301.32" font-family="Times,serif" font-size="14.00">:androidApp</text>
</g>
<!-- :sharedApp -->
<g id="node2" class="node">
<title>:sharedApp</title>
<ellipse fill="#ab47bc" stroke="black" cx="193.85" cy="-234" rx="68.04" ry="18"/>
<text text-anchor="middle" x="193.85" y="-229.32" font-family="Times,serif" font-size="14.00">:sharedApp</text>
</g>
<!-- :androidApp&#45;&gt;:sharedApp -->
<g id="edge1" class="edge">
<title>:androidApp&#45;&gt;:sharedApp</title>
<path fill="none" stroke="black" stroke-dasharray="1,5" d="M147.93,-287.7C155.13,-279.44 163.88,-269.39 171.81,-260.3"/>
<polygon fill="black" stroke="black" points="174.44,-262.6 178.37,-252.76 169.17,-258 174.44,-262.6"/>
</g>
<!-- :domain -->
<g id="node3" class="node">
<title>:domain</title>
<ellipse fill="#ab47bc" stroke="black" cx="78.85" cy="-90" rx="51.21" ry="18"/>
<text text-anchor="middle" x="78.85" y="-85.33" font-family="Times,serif" font-size="14.00">:domain</text>
</g>
<!-- :sharedApp&#45;&gt;:domain -->
<g id="edge2" class="edge">
<title>:sharedApp&#45;&gt;:domain</title>
<path fill="none" stroke="black" d="M162.41,-217.72C146.4,-208.62 127.66,-195.77 114.85,-180 100.48,-162.3 91.18,-138.1 85.65,-119.4"/>
<polygon fill="black" stroke="black" points="89.03,-118.48 83.01,-109.76 82.28,-120.33 89.03,-118.48"/>
</g>
<!-- :logger -->
<g id="node4" class="node">
<title>:logger</title>
<ellipse fill="#ab47bc" stroke="black" cx="231.85" cy="-90" rx="46.47" ry="18"/>
<text text-anchor="middle" x="231.85" y="-85.33" font-family="Times,serif" font-size="14.00">:logger</text>
</g>
<!-- :sharedApp&#45;&gt;:logger -->
<g id="edge3" class="edge">
<title>:sharedApp&#45;&gt;:logger</title>
<path fill="none" stroke="black" d="M198.51,-215.59C204.96,-191.5 216.67,-147.75 224.35,-119.03"/>
<polygon fill="black" stroke="black" points="227.68,-120.14 226.88,-109.57 220.92,-118.33 227.68,-120.14"/>
</g>
<!-- :config -->
<g id="node5" class="node">
<title>:config</title>
<ellipse fill="#ab47bc" stroke="black" cx="231.85" cy="-18" rx="44.37" ry="18"/>
<text text-anchor="middle" x="231.85" y="-13.32" font-family="Times,serif" font-size="14.00">:config</text>
</g>
<!-- :sharedApp&#45;&gt;:config -->
<g id="edge4" class="edge">
<title>:sharedApp&#45;&gt;:config</title>
<path fill="none" stroke="black" d="M211.81,-216.49C234.41,-194.37 272.06,-152.68 286.85,-108 291.88,-92.81 293.11,-86.72 286.85,-72 281.77,-60.04 272.52,-49.47 263.04,-40.98"/>
<polygon fill="black" stroke="black" points="265.47,-38.45 255.54,-34.75 260.99,-43.83 265.47,-38.45"/>
</g>
<!-- :data -->
<g id="node6" class="node">
<title>:data</title>
<ellipse fill="#ab47bc" stroke="black" cx="159.85" cy="-162" rx="36.48" ry="18"/>
<text text-anchor="middle" x="159.85" y="-157.32" font-family="Times,serif" font-size="14.00">:data</text>
</g>
<!-- :sharedApp&#45;&gt;:data -->
<g id="edge5" class="edge">
<title>:sharedApp&#45;&gt;:data</title>
<path fill="none" stroke="black" stroke-dasharray="1,5" d="M185.45,-215.7C181.65,-207.87 177.07,-198.44 172.84,-189.73"/>
<polygon fill="black" stroke="black" points="176.11,-188.45 168.59,-180.98 169.81,-191.51 176.11,-188.45"/>
</g>
<!-- :logger&#45;&gt;:config -->
<g id="edge6" class="edge">
<title>:logger&#45;&gt;:config</title>
<path fill="none" stroke="black" stroke-dasharray="1,5" d="M231.85,-71.7C231.85,-64.41 231.85,-55.73 231.85,-47.54"/>
<polygon fill="black" stroke="black" points="235.35,-47.62 231.85,-37.62 228.35,-47.62 235.35,-47.62"/>
</g>
<!-- :data&#45;&gt;:domain -->
<g id="edge7" class="edge">
<title>:data&#45;&gt;:domain</title>
<path fill="none" stroke="black" stroke-dasharray="1,5" d="M142.28,-145.81C131.75,-136.71 118.14,-124.95 106.22,-114.65"/>
<polygon fill="black" stroke="black" points="108.52,-112.01 98.67,-108.12 103.95,-117.31 108.52,-112.01"/>
</g>
<!-- :data&#45;&gt;:logger -->
<g id="edge8" class="edge">
<title>:data&#45;&gt;:logger</title>
<path fill="none" stroke="black" stroke-dasharray="1,5" d="M175.83,-145.46C185.05,-136.5 196.84,-125.04 207.22,-114.95"/>
<polygon fill="black" stroke="black" points="209.35,-117.76 214.08,-108.28 204.47,-112.74 209.35,-117.76"/>
</g>
<!-- :data&#45;&gt;:config -->
<g id="edge9" class="edge">
<title>:data&#45;&gt;:config</title>
<path fill="none" stroke="black" stroke-dasharray="1,5" d="M160.1,-143.57C161.05,-124.83 164.57,-94.69 176.85,-72 183.09,-60.48 192.7,-49.96 202.15,-41.39"/>
<polygon fill="black" stroke="black" points="204.22,-44.23 209.54,-35.07 199.67,-38.91 204.22,-44.23"/>
</g>
<!-- :desktopApp -->
<g id="node7" class="node">
<title>:desktopApp</title>
<polygon fill="#ab47bc" stroke="black" points="307.1,-324 202.6,-324 202.6,-288 307.1,-288 307.1,-324"/>
<text text-anchor="middle" x="254.85" y="-301.32" font-family="Times,serif" font-size="14.00">:desktopApp</text>
</g>
<!-- :desktopApp&#45;&gt;:sharedApp -->
<g id="edge10" class="edge">
<title>:desktopApp&#45;&gt;:sharedApp</title>
<path fill="none" stroke="black" stroke-dasharray="1,5" d="M239.78,-287.7C232.58,-279.44 223.83,-269.39 215.9,-260.3"/>
<polygon fill="black" stroke="black" points="218.54,-258 209.33,-252.76 213.26,-262.6 218.54,-258"/>
</g>
</g>
</svg>
